<?xml version="1.0" encoding="UTF-8" standalone="no"?>
<!DOCTYPE svg PUBLIC "-//W3C//DTD SVG 1.1//EN" "http://www.w3.org/Graphics/SVG/1.1/DTD/svg11.dtd">
<svg width="741pt" height="153pt" viewBox="0 0 741 153" version="1.1" xmlns="http://www.w3.org/2000/svg" xmlns:xlink="http://www.w3.org/1999/xlink" xml:space="preserve"
     style="fill-rule:evenodd;clip-rule:evenodd;stroke-linejoin:round;stroke-miterlimit:1.41421;">
    <path d="M152.4,139.7C152.4,146.844 146.844,152.4 139.7,152.4L12.7,152.4C5.821,152.4 0,146.844 0,139.7L0,12.7C0,5.821 5.821,0 12.7,0L139.7,0C146.844,0 152.4,5.821 152.4,12.7L152.4,139.7Z" style="fill:rgb(8,156,186);fill-rule:nonzero;"/>
    <path d="M127.265,76.465C123.825,76.465 120.915,78.317 119.327,80.698L107.686,75.406C108.744,71.437 109.008,67.469 108.479,63.236C107.95,59.002 106.363,54.504 103.717,50.8C102.394,48.948 100.806,47.096 98.954,45.508L111.654,34.396C112.977,35.454 114.829,35.983 116.681,35.983C121.708,35.983 125.942,31.75 125.942,26.723C125.942,21.696 121.708,17.462 116.681,17.462C111.39,17.462 107.421,21.696 107.421,26.723C107.421,28.311 107.686,29.633 108.215,30.692L94.986,42.598C93.927,41.804 92.869,41.275 91.811,40.746C89.694,39.687 87.313,38.894 84.931,38.365C82.021,37.836 78.846,37.836 75.936,38.1C71.438,38.629 66.675,40.481 62.971,43.127C60.59,44.715 58.473,46.567 56.886,48.683C56.621,48.948 56.356,48.948 56.356,49.212C55.827,50.006 55.298,50.8 54.769,51.594L37.042,43.656C37.042,43.127 37.306,42.598 37.306,42.069C37.306,36.777 33.073,32.808 28.046,32.808C22.754,32.808 18.785,36.777 18.785,42.069C18.785,47.096 22.754,51.329 28.046,51.329C30.692,51.329 33.073,50.006 34.925,48.154L52.387,56.092C51.594,57.944 51.065,60.061 50.536,61.912C50.006,64.558 50.006,67.204 50.271,70.115L50.271,70.379C50.536,73.025 51.065,75.406 52.123,78.052L52.387,78.581C52.917,80.169 53.975,81.756 54.769,83.344L33.602,105.304C32.279,104.511 30.692,104.246 29.104,104.246C24.077,104.246 19.844,108.479 19.844,113.506C19.844,118.533 24.077,122.767 29.104,122.767C34.396,122.767 38.365,118.533 38.365,113.506C38.365,111.654 37.836,110.067 37.042,108.744L57.944,87.312C61.383,91.017 65.617,93.662 70.379,95.25C72.231,95.779 74.083,96.044 75.936,96.308L76.2,107.421C72.496,108.744 69.586,112.183 69.586,116.417C69.586,121.444 73.819,125.677 78.846,125.677C83.873,125.677 88.106,121.444 88.106,116.417C88.106,111.919 85.196,108.479 81.227,107.421L80.963,96.573C82.815,96.573 84.931,96.044 86.783,95.779L89.694,94.986L112.712,127.265C113.242,128.323 114.3,128.852 115.358,129.381C115.358,129.381 115.623,129.646 115.887,129.646C116.152,129.646 116.681,129.911 116.946,129.911C118.533,130.175 120.386,129.911 121.708,128.852L122.502,128.323C123.825,127.265 124.619,125.942 124.883,124.09C125.413,122.502 124.883,120.65 123.825,119.327L101.071,87.048L103.188,84.667C103.981,83.344 105.04,81.756 105.833,80.169L107.156,80.698C107.156,80.962 118.004,85.725 118.004,85.725C118.004,90.752 121.973,94.986 127.265,94.986C132.292,94.986 136.261,90.752 136.261,85.725C136.261,80.698 132.292,76.465 127.265,76.465L127.265,76.465ZM61.913,54.769C66.411,48.154 74.613,44.45 82.815,46.037C85.196,46.302 87.048,46.831 88.9,47.89C90.488,48.683 91.811,49.742 93.133,50.8L93.398,50.8C95.25,52.387 96.838,54.24 98.161,56.356C100.542,60.59 101.6,65.617 100.806,70.644C98.69,82.286 87.842,90.487 75.936,88.371C64.294,86.519 56.356,75.406 58.208,63.765C58.208,63.236 58.473,62.442 58.473,61.912C58.738,60.854 59.002,60.061 59.531,59.267C60.061,57.679 60.854,56.092 61.913,54.769Z" style="fill:white;fill-rule:nonzero;"/>
    <path d="M58.473,61.912C58.473,62.442 58.208,63.236 58.208,63.765C56.356,75.406 64.294,86.519 75.936,88.371C87.842,90.487 98.69,82.286 100.806,70.644C101.6,65.617 100.542,60.59 98.161,56.356C96.838,54.24 94.986,52.387 93.133,50.8C91.811,49.742 90.488,48.683 88.9,47.89C84.402,45.773 79.375,45.244 74.348,46.567C69.056,47.625 64.823,50.8 61.912,54.769C60.854,56.092 60.061,57.679 59.531,59.267C59.267,60.061 58.737,61.119 58.473,61.912L58.473,61.912ZM75.936,59.796L75.936,53.446L84.402,53.446L84.402,60.061L82.55,73.025L77.258,73.025L75.936,59.796ZM79.904,82.815C77.788,82.815 75.936,80.962 76.2,78.846C76.2,76.729 77.788,75.142 79.904,75.142C82.021,75.142 83.873,76.994 83.608,79.111C83.608,81.227 82.021,82.815 79.904,82.815Z" style="fill:rgb(8,156,186);fill-rule:nonzero;"/>
    <path d="M82.55,73.025L84.402,60.061L84.402,53.446L75.936,53.446L75.936,59.796L77.258,73.025L82.55,73.025Z" style="fill:white;fill-rule:nonzero;"/>
    <path d="M83.608,79.111C83.873,76.994 82.021,75.142 79.904,75.142C77.788,75.142 76.2,76.729 76.2,78.846C75.936,80.962 77.788,82.815 79.904,82.815C82.021,82.815 83.608,81.227 83.608,79.111Z" style="fill:white;fill-rule:nonzero;"/>
    <g transform="matrix(2.76012,0,0,2.76012,-567.322,21.749)">
        <path d="M270.057,2.724L270.057,36.996L274.617,36.996L274.617,21.3L290.361,21.3L290.361,17.46L274.617,17.46L274.617,6.564L292.569,6.564L292.569,2.724L270.057,2.724Z" style="fill:rgb(8,156,186);fill-rule:nonzero;"/>
        <path d="M299.913,24.612C299.913,23.108 300.113,21.772 300.513,20.604C300.913,19.436 301.465,18.452 302.169,17.652C302.873,16.852 303.697,16.244 304.641,15.828C305.585,15.412 306.585,15.204 307.641,15.204C308.697,15.204 309.697,15.412 310.641,15.828C311.585,16.244 312.409,16.852 313.113,17.652C313.817,18.452 314.369,19.436 314.769,20.604C315.169,21.772 315.369,23.108 315.369,24.612C315.369,26.116 315.169,27.452 314.769,28.62C314.369,29.788 313.817,30.764 313.113,31.548C312.409,32.332 311.585,32.932 310.641,33.348C309.697,33.764 308.697,33.972 307.641,33.972C306.585,33.972 305.585,33.764 304.641,33.348C303.697,32.932 302.873,32.332 302.169,31.548C301.465,30.764 300.913,29.788 300.513,28.62C300.113,27.452 299.913,26.116 299.913,24.612ZM295.593,24.612C295.593,26.436 295.849,28.132 296.361,29.7C296.873,31.268 297.641,32.636 298.665,33.804C299.689,34.972 300.953,35.884 302.457,36.54C303.961,37.196 305.689,37.524 307.641,37.524C309.625,37.524 311.361,37.196 312.849,36.54C314.337,35.884 315.593,34.972 316.617,33.804C317.641,32.636 318.409,31.268 318.921,29.7C319.433,28.132 319.689,26.436 319.689,24.612C319.689,22.788 319.433,21.084 318.921,19.5C318.409,17.916 317.641,16.54 316.617,15.372C315.593,14.204 314.337,13.284 312.849,12.612C311.361,11.94 309.625,11.604 307.641,11.604C305.689,11.604 303.961,11.94 302.457,12.612C300.953,13.284 299.689,14.204 298.665,15.372C297.641,16.54 296.873,17.916 296.361,19.5C295.849,21.084 295.593,22.788 295.593,24.612Z" style="fill:rgb(8,156,186);fill-rule:nonzero;"/>
        <path d="M324.345,12.18L324.345,36.996L328.425,36.996L328.425,25.956C328.425,24.356 328.585,22.94 328.905,21.708C329.225,20.476 329.737,19.428 330.441,18.564C331.145,17.7 332.073,17.044 333.225,16.596C334.377,16.148 335.769,15.924 337.401,15.924L337.401,11.604C335.193,11.54 333.369,11.988 331.929,12.948C330.489,13.908 329.273,15.396 328.281,17.412L328.185,17.412L328.185,12.18L324.345,12.18Z" style="fill:rgb(8,156,186);fill-rule:nonzero;"/>
        <path d="M346.137,12.18L346.137,4.74L342.057,4.74L342.057,12.18L337.833,12.18L337.833,15.78L342.057,15.78L342.057,31.572C342.057,32.724 342.169,33.652 342.393,34.356C342.617,35.06 342.961,35.604 343.425,35.988C343.889,36.372 344.497,36.636 345.249,36.78C346.001,36.924 346.905,36.996 347.961,36.996L351.081,36.996L351.081,33.396L349.209,33.396C348.569,33.396 348.049,33.372 347.649,33.324C347.249,33.276 346.937,33.172 346.713,33.012C346.489,32.852 346.337,32.628 346.257,32.34C346.177,32.052 346.137,31.668 346.137,31.188L346.137,15.78L351.081,15.78L351.081,12.18L346.137,12.18Z" style="fill:rgb(8,156,186);fill-rule:nonzero;"/>
        <path d="M359.913,7.716L359.913,2.724L355.833,2.724L355.833,7.716L359.913,7.716ZM355.833,12.18L355.833,36.996L359.913,36.996L359.913,12.18L355.833,12.18Z" style="fill:rgb(8,156,186);fill-rule:nonzero;"/>
        <path d="M386.745,12.756L391.065,12.756C391.001,10.868 390.641,9.244 389.985,7.884C389.329,6.524 388.433,5.396 387.297,4.5C386.161,3.604 384.841,2.948 383.337,2.532C381.833,2.116 380.201,1.908 378.441,1.908C376.873,1.908 375.345,2.108 373.857,2.508C372.369,2.908 371.041,3.516 369.873,4.332C368.705,5.148 367.769,6.188 367.065,7.452C366.361,8.716 366.009,10.212 366.009,11.94C366.009,13.508 366.321,14.812 366.945,15.852C367.569,16.892 368.401,17.74 369.441,18.396C370.481,19.052 371.657,19.58 372.969,19.98C374.281,20.38 375.617,20.732 376.977,21.036C378.337,21.34 379.673,21.636 380.985,21.924C382.297,22.212 383.473,22.588 384.513,23.052C385.553,23.516 386.385,24.116 387.009,24.852C387.633,25.588 387.945,26.548 387.945,27.732C387.945,28.98 387.689,30.004 387.177,30.804C386.665,31.604 385.993,32.236 385.161,32.7C384.329,33.164 383.393,33.492 382.353,33.684C381.313,33.876 380.281,33.972 379.257,33.972C377.977,33.972 376.729,33.812 375.513,33.492C374.297,33.172 373.233,32.676 372.321,32.004C371.409,31.332 370.673,30.476 370.113,29.436C369.553,28.396 369.273,27.156 369.273,25.716L364.953,25.716C364.953,27.796 365.329,29.596 366.081,31.116C366.833,32.636 367.857,33.884 369.153,34.86C370.449,35.836 371.953,36.564 373.665,37.044C375.377,37.524 377.193,37.764 379.113,37.764C380.681,37.764 382.257,37.58 383.841,37.212C385.425,36.844 386.857,36.252 388.137,35.436C389.417,34.62 390.465,33.564 391.281,32.268C392.097,30.972 392.505,29.412 392.505,27.588C392.505,25.892 392.193,24.484 391.569,23.364C390.945,22.244 390.113,21.316 389.073,20.58C388.033,19.844 386.857,19.26 385.545,18.828C384.233,18.396 382.897,18.02 381.537,17.7C380.177,17.38 378.841,17.084 377.529,16.812C376.217,16.54 375.041,16.196 374.001,15.78C372.961,15.364 372.129,14.828 371.505,14.172C370.881,13.516 370.569,12.66 370.569,11.604C370.569,10.484 370.785,9.548 371.217,8.796C371.649,8.044 372.225,7.444 372.945,6.996C373.665,6.548 374.489,6.228 375.417,6.036C376.345,5.844 377.289,5.748 378.249,5.748C380.617,5.748 382.561,6.3 384.081,7.404C385.601,8.508 386.489,10.292 386.745,12.756Z" style="fill:rgb(8,156,186);fill-rule:nonzero;"/>
        <rect x="398.217" y="2.724" width="4.56" height="34.272" style="fill:rgb(8,156,186);fill-rule:nonzero;"/>
        <path d="M410.457,2.724L410.457,36.996L434.265,36.996L434.265,33.156L415.017,33.156L415.017,21.3L432.825,21.3L432.825,17.46L415.017,17.46L415.017,6.564L434.121,6.564L434.121,2.724L410.457,2.724Z" style="fill:rgb(8,156,186);fill-rule:nonzero;"/>
        <path d="M439.881,2.724L439.881,36.996L444.201,36.996L444.201,8.484L444.297,8.484L455.001,36.996L458.889,36.996L469.593,8.484L469.689,8.484L469.689,36.996L474.009,36.996L474.009,2.724L467.769,2.724L456.921,31.524L446.121,2.724L439.881,2.724Z" style="fill:rgb(8,156,186);fill-rule:nonzero;"/>
    </g>
</svg>
